# xmcd CD database file
#
# Track frame offsets:
#	150
#	14540
#	30227
#	47437
#	61252
#	74735
#	91085
#	104137
#	119692
#	130542
#	149722
#	166500
#
# Disc length: 2360 seconds
#
# Revision: 2
# Processed by: cddbd v1.5.2PL0 Copyright (c) Steve Scherf et al.
# Submitted via: CDex 1.70beta2
#
DISCID=a309360c
DTITLE=Various Artist - Easy Kind of Christmas - Light Piano Jazz
DYEAR=2006
DGENRE=Jazz
TTITLE0=Deck the Halls
TTITLE1=Greensleeves
TTITLE2=Up On a Housetop
TTITLE3=Silent Night
TTITLE4=Dance Of The Sugar Plum Fairy
TTITLE5=Carol Of The Bells
TTITLE6=Here We Come a Wassailing
TTITLE7=Fum Fum Fum
TTITLE8=The Holly and the Ivy
TTITLE9=Jingle Bells
TTITLE10=God Rest Ye Merry Gentlemen
TTITLE11=Auld Lang Syne
EXTD=YEAR: 2006
EXTT0=
EXTT1=
EXTT2=
EXTT3=
EXTT4=
EXTT5=
EXTT6=
EXTT7=
EXTT8=
EXTT9=
EXTT10=
EXTT11=
PLAYORDER=
